# xmcd CD database file
#
# Track frame offsets:
#	150
#	15976
#	30173
#	44411
#	58818
#	74964
#	87954
#	101852
#	115005
#	131804
#	144629
#	163061
#	175464
#	191945
#	204205
#	215209
#	230509
#
# Disc length: 3301 seconds
#
# Revision: 0
# Processed by: cddbd v1.5.2PL0 Copyright (c) Steve Scherf et al.
# Submitted via: CDex 1.70beta2
#
DISCID=040ce311
DTITLE=The Countrymen - Cdn. - OVM - Alive and Kickin' - 45th Anniversary
DYEAR=1900
DGENRE=Country
TTITLE0=Does Fort Worth Ever Cross Your Mind - Kirk Warren
TTITLE1=Under Your Spell Again - Guy Jamieson
TTITLE2=Sleep Walk - Al Utronki
TTITLE3=I Thought I Heard You Calling My Name - Carl Warren
TTITLE4=Walk Through This World With Me - Julie Johnston
TTITLE5=Swinging Doors - Lloyd Eady
TTITLE6=Pickin' At Boby J's - Bob Schwartz
TTITLE7=Charlie's Shoes - Bob Johnston
TTITLE8=I Never Go Around Mirrors - Dan Paul Rogers
TTITLE9=Candy Kisses - Ed Hisko
TTITLE10=Buck Owens Medley - Al Brisco
TTITLE11=I Love You A Thousand Ways - Darrell Mooney
TTITLE12=Sweet Dreams Of You - Jennifer Johnston
TTITLE13=Talk To Me Lonesome Heart - Glenn Toner
TTITLE14=Last Date- Marie Brydges
TTITLE15=Too Many Rivers - Ray Kohlsmith
TTITLE16=St Patricks Day-Haste To The Wedding - Dennis Harrington
EXTD=
EXTT0=
EXTT1=
EXTT2=
EXTT3=
EXTT4=
EXTT5=
EXTT6=
EXTT7=
EXTT8=
EXTT9=
EXTT10=
EXTT11=
EXTT12=
EXTT13=
EXTT14=
EXTT15=
EXTT16=
PLAYORDER=
